<svg xmlns="http://www.w3.org/2000/svg" width="866.0000000000001" height="648">
 <!-- Created with Image Occlusion Enhanced -->
 <g>
  <title>Labels</title>
 </g>
 <g>
  <title>Masks</title>
  <rect id="0caef23c52604392bd6bbf291958c338-ao-1" height="19.85294" width="91.54412" y="409.16908" x="11.94117" stroke="#2D2D2D" fill="#FFEBA2"/>
  <rect id="0caef23c52604392bd6bbf291958c338-ao-2" height="19.85294" width="100.36765" y="467.62497" x="-0.19118" stroke="#2D2D2D" fill="#FFEBA2"/>
  <rect id="0caef23c52604392bd6bbf291958c338-ao-3" height="17.64706" width="116.91176" y="575.7132" x="22.97058" stroke="#2D2D2D" fill="#FFEBA2"/>
  <rect id="0caef23c52604392bd6bbf291958c338-ao-4" height="15.44118" width="95.95588" y="470.93379" x="551.2794" stroke="#2D2D2D" fill="#FFEBA2"/>
  <rect id="0caef23c52604392bd6bbf291958c338-ao-5" height="45.22059" width="95.95588" y="331.9632" x="1.46323" stroke="#2D2D2D" fill="#FFEBA2"/>
  <rect id="0caef23c52604392bd6bbf291958c338-ao-6" height="28.67647" width="106.98529" y="230.49262" x="8.08088" stroke="#2D2D2D" fill="#FFEBA2"/>
  <rect id="0caef23c52604392bd6bbf291958c338-ao-7" height="23.16176" width="137.86765" y="159.90438" x="20.21323" stroke="#2D2D2D" fill="#FFEBA2"/>
  <rect id="0caef23c52604392bd6bbf291958c338-ao-8" height="31.98529" width="84.92647" y="179.75732" x="385.28675" stroke="#2D2D2D" fill="#FFEBA2"/>
  <rect id="0caef23c52604392bd6bbf291958c338-ao-9" height="19.85294" width="109.19118" y="266.88967" x="438.22793" stroke="#2D2D2D" fill="#FFEBA2"/>
  <rect id="0caef23c52604392bd6bbf291958c338-ao-10" height="26.47059" width="86.76471" y="305.67644" x="468.55881" stroke="#2D2D2D" fill="#FFEBA2"/>
  <rect id="0caef23c52604392bd6bbf291958c338-ao-11" height="20.58824" width="127.94118" y="393.91173" x="527.38234" stroke="#2D2D2D" fill="#FFEBA2"/>
  <rect id="0caef23c52604392bd6bbf291958c338-ao-12" height="20.58824" width="116.17647" y="542.44114" x="5.32352" stroke="#2D2D2D" fill="#FFEBA2"/>
  <rect id="0caef23c52604392bd6bbf291958c338-ao-13" height="23.52941" width="335.29411" y="354.20585" x="490.61764" stroke="#2D2D2D" fill="#FFEBA2"/>
  <rect id="0caef23c52604392bd6bbf291958c338-ao-14" height="20.58824" width="198.52941" y="427.73526" x="525.91175" stroke="#2D2D2D" fill="#FFEBA2"/>
  <rect id="0caef23c52604392bd6bbf291958c338-ao-15" height="20.58824" width="86.76471" y="232.14703" x="456.79411" stroke="#2D2D2D" fill="#FFEBA2"/>
  <rect id="0caef23c52604392bd6bbf291958c338-ao-16" height="33.82353" width="51.47059" y="167.44115" x="815.61763" stroke="#2D2D2D" fill="#FFEBA2"/>
  <rect id="0caef23c52604392bd6bbf291958c338-ao-17" height="20.58824" width="23.52941" y="246.85291" x="772.97057" stroke="#2D2D2D" fill="#FFEBA2"/>
  <rect id="0caef23c52604392bd6bbf291958c338-ao-18" height="23.52941" width="32.35294" y="230.67644" x="639.14705" stroke="#2D2D2D" fill="#FFEBA2"/>
  <rect id="0caef23c52604392bd6bbf291958c338-ao-19" height="20.58824" width="32.35294" y="126.26468" x="536.20587" stroke="#2D2D2D" fill="#FFEBA2"/>
  <rect id="0caef23c52604392bd6bbf291958c338-ao-20" height="19.11765" width="26.47059" y="165.97056" x="677.38234" stroke="#2D2D2D" fill="#FFEBA2"/>
  <rect id="0caef23c52604392bd6bbf291958c338-ao-21" height="11.76471" width="100" y="1.26468" x="670.0294" stroke="#2D2D2D" fill="#FFEBA2"/>
  <rect id="0caef23c52604392bd6bbf291958c338-ao-22" height="14.70588" width="36.76471" y="1.26468" x="609.73528" stroke="#2D2D2D" fill="#FFEBA2"/>
  <rect id="0caef23c52604392bd6bbf291958c338-ao-23" height="17.64706" width="107.35294" y="67.44115" x="722.97058" stroke="#2D2D2D" fill="#FFEBA2"/>
  <rect id="0caef23c52604392bd6bbf291958c338-ao-24" height="17.64706" width="66.17647" y="93.91173" x="736.20587" stroke="#2D2D2D" fill="#FF7E7E" class="qshape"/>
 </g>
</svg>