<svg xmlns="http://www.w3.org/2000/svg" width="575" height="1077">
 <!-- Created with Image Occlusion Enhanced -->
 <g>
  <title>Labels</title>
 </g>
 <g>
  <title>Masks</title>
  <rect id="5a057c182abd4c5c923c0dd4415364f5-ao-1" height="34.47581" width="38.10484" y="152.3346" x="144.45565" stroke="#2D2D2D" fill="#FFEBA2"/>
  <rect id="5a057c182abd4c5c923c0dd4415364f5-ao-2" height="36.29032" width="34.47581" y="96.0846" x="249.69759" stroke="#2D2D2D" fill="#FF7E7E" class="qshape"/>
  <rect id="5a057c182abd4c5c923c0dd4415364f5-ao-3" height="29.03226" width="45.3629" y="92.45557" x="393.04437" stroke="#2D2D2D" fill="#FFEBA2"/>
  <rect id="5a057c182abd4c5c923c0dd4415364f5-ao-4" height="29.03226" width="34.47581" y="159.59267" x="445.66533" stroke="#2D2D2D" fill="#FFEBA2"/>
  <rect id="5a057c182abd4c5c923c0dd4415364f5-ao-5" height="25.40323" width="36.29032" y="221.28622" x="541.83469" stroke="#2D2D2D" fill="#FFEBA2"/>
  <rect id="5a057c182abd4c5c923c0dd4415364f5-ao-6" height="39.91936" width="43.54839" y="277.53622" x="293.24598" stroke="#2D2D2D" fill="#FFEBA2"/>
  <rect id="5a057c182abd4c5c923c0dd4415364f5-ao-7" height="38.10484" width="41.73387" y="257.57654" x="139.0121" stroke="#2D2D2D" fill="#FFEBA2"/>
  <rect id="5a057c182abd4c5c923c0dd4415364f5-ao-8" height="36.29032" width="43.54839" y="357.37493" x="4.73791" stroke="#2D2D2D" fill="#FFEBA2"/>
  <rect id="5a057c182abd4c5c923c0dd4415364f5-ao-9" height="41.73387" width="48.99194" y="422.69751" x="131.75404" stroke="#2D2D2D" fill="#FFEBA2"/>
  <rect id="5a057c182abd4c5c923c0dd4415364f5-ao-10" height="29.03226" width="39.91936" y="627.73784" x="109.97985" stroke="#2D2D2D" fill="#FFEBA2"/>
  <rect id="5a057c182abd4c5c923c0dd4415364f5-ao-11" height="30.84677" width="36.29032" y="656.77009" x="168.04436" stroke="#2D2D2D" fill="#FFEBA2"/>
  <rect id="5a057c182abd4c5c923c0dd4415364f5-ao-12" height="30.84677" width="41.73387" y="861.81042" x="249.69759" stroke="#2D2D2D" fill="#FFEBA2"/>
  <rect id="5a057c182abd4c5c923c0dd4415364f5-ao-13" height="34.47581" width="38.10484" y="930.76203" x="256.95565" stroke="#2D2D2D" fill="#FFEBA2"/>
  <rect id="5a057c182abd4c5c923c0dd4415364f5-ao-14" height="25.40323" width="36.29032" y="943.46365" x="1.10888" stroke="#2D2D2D" fill="#FFEBA2"/>
  <rect id="5a057c182abd4c5c923c0dd4415364f5-ao-15" height="29.03226" width="39.91936" y="1050.5201" x="115.42339" stroke="#2D2D2D" fill="#FFEBA2"/>
  <rect id="5a057c182abd4c5c923c0dd4415364f5-ao-16" height="32.66129" width="39.91936" y="885.39913" x="454.73791" stroke="#2D2D2D" fill="#FFEBA2"/>
  <rect id="5a057c182abd4c5c923c0dd4415364f5-ao-17" height="30.84677" width="41.73387" y="963.42332" x="540.02017" stroke="#2D2D2D" fill="#FFEBA2"/>
  <rect id="5a057c182abd4c5c923c0dd4415364f5-ao-18" height="30.84677" width="30.84677" y="1008.78623" x="543.64921" stroke="#2D2D2D" fill="#FFEBA2"/>
  <rect id="5a057c182abd4c5c923c0dd4415364f5-ao-19" height="32.66129" width="30.84677" y="636.81042" x="543.64921" stroke="#2D2D2D" fill="#FFEBA2"/>
  <rect id="5a057c182abd4c5c923c0dd4415364f5-ao-20" height="32.66129" width="39.91936" y="680.3588" x="325.90727" stroke="#2D2D2D" fill="#FFEBA2"/>
  <rect id="5a057c182abd4c5c923c0dd4415364f5-ao-21" height="32.66129" width="38.10484" y="453.54429" x="427.52017" stroke="#2D2D2D" fill="#FFEBA2"/>
  <rect id="5a057c182abd4c5c923c0dd4415364f5-ao-22" height="30.84677" width="34.47581" y="453.54429" x="540.02017" stroke="#2D2D2D" fill="#FFEBA2"/>
  <rect id="5a057c182abd4c5c923c0dd4415364f5-ao-23" height="38.10484" width="29.03226" y="373.70557" x="545.46372" stroke="#2D2D2D" fill="#FFEBA2"/>
 </g>
</svg>