<svg xmlns="http://www.w3.org/2000/svg" width="828" height="1159">
 <!-- Created with Image Occlusion Enhanced -->
 <g>
  <title>Labels</title>
 </g>
 <g>
  <title>Masks</title>
  <rect id="6c3ee29ff00a4403af67ce7cbf675617-ao-1" height="42.1875" width="52.73437" y="1056.59706" x="180.73321" stroke="#2D2D2D" fill="#7fff00"/>
  <rect id="6c3ee29ff00a4403af67ce7cbf675617-ao-2" height="30.13393" width="51.22768" y="1064.13054" x="467.00552" stroke="#2D2D2D" fill="#7fff00"/>
  <rect id="6c3ee29ff00a4403af67ce7cbf675617-ao-3" height="33.14732" width="51.22768" y="966.19528" x="504.67293" stroke="#2D2D2D" fill="#7fff00"/>
  <rect id="6c3ee29ff00a4403af67ce7cbf675617-ao-4" height="40.6808" width="55.74777" y="963.18189" x="316.33588" stroke="#2D2D2D" fill="#7fff00"/>
  <rect id="6c3ee29ff00a4403af67ce7cbf675617-ao-5" height="33.14732" width="37.66741" y="922.50108" x="266.6149" stroke="#2D2D2D" fill="#7fff00"/>
  <rect id="6c3ee29ff00a4403af67ce7cbf675617-ao-6" height="36.16071" width="45.20089" y="746.2176" x="251.54794" stroke="#2D2D2D" fill="#7fff00"/>
  <rect id="6c3ee29ff00a4403af67ce7cbf675617-ao-7" height="34.65402" width="43.6942" y="645.26894" x="137.03901" stroke="#2D2D2D" fill="#7fff00"/>
  <rect id="6c3ee29ff00a4403af67ce7cbf675617-ao-8" height="39.17411" width="45.20089" y="586.50778" x="24.03678" stroke="#2D2D2D" fill="#7fff00"/>
  <rect id="6c3ee29ff00a4403af67ce7cbf675617-ao-9" height="34.65402" width="40.6808" y="313.79574" x="60.19749" stroke="#2D2D2D" fill="#7fff00"/>
  <rect id="6c3ee29ff00a4403af67ce7cbf675617-ao-10" height="31.64062" width="45.20089" y="285.1685" x="207.85374" stroke="#2D2D2D" fill="#7fff00"/>
  
  <rect id="6c3ee29ff00a4403af67ce7cbf675617-ao-12" height="33.14732" width="43.6942" y="123.95199" x="63.21089" stroke="#2D2D2D" fill="#7fff00"/>
  <rect id="6c3ee29ff00a4403af67ce7cbf675617-ao-13" height="33.14732" width="48.21428" y="36.5636" x="30.06357" stroke="#2D2D2D" fill="#7fff00"/>
  <rect id="6c3ee29ff00a4403af67ce7cbf675617-ao-14" height="33.14732" width="49.72098" y="42.59038" x="379.61713" stroke="#2D2D2D" fill="#7fff00"/>
  <rect id="6c3ee29ff00a4403af67ce7cbf675617-ao-15" height="33.14732" width="40.6808" y="137.51226" x="421.80463" stroke="#2D2D2D" fill="#7fff00"/>
  <rect id="6c3ee29ff00a4403af67ce7cbf675617-ao-16" height="33.14732" width="45.20089" y="253.52788" x="417.28454" stroke="#2D2D2D" fill="#7fff00"/>
  <rect id="6c3ee29ff00a4403af67ce7cbf675617-ao-17" height="31.64062" width="46.70759" y="404.19752" x="491.11266" stroke="#2D2D2D" fill="#7fff00"/>
  <rect id="6c3ee29ff00a4403af67ce7cbf675617-ao-18" height="37.66741" width="43.6942" y="592.53457" x="468.51222" stroke="#2D2D2D" fill="#7fff00"/>
  <rect id="6c3ee29ff00a4403af67ce7cbf675617-ao-19" height="30.13393" width="39.17411" y="717.59037" x="604.1149" stroke="#2D2D2D" fill="#7fff00"/>
  <rect id="6c3ee29ff00a4403af67ce7cbf675617-ao-20" height="36.16071" width="37.66741" y="930.03456" x="625.20864" stroke="#2D2D2D" fill="#7fff00"/>
  <rect id="6c3ee29ff00a4403af67ce7cbf675617-ao-21" height="31.64062" width="46.70759" y="960.16849" x="677.94302" stroke="#2D2D2D" fill="#7fff00"/>
 </g>
</svg>