<svg xmlns="http://www.w3.org/2000/svg" width="1478.0000000000002" height="790">
 <!-- Created with Image Occlusion Enhanced -->
 <g>
  <title>Labels</title>
 </g>
 <g>
  <title>Masks</title>
  <rect id="87dadaf44fde4455bf453ce890b9f73e-ao-1" height="156.41026" width="384.6154" y="113.84612" x="233.53851" stroke="#2D2D2D" fill="#FFEBA2"/>
  <rect id="87dadaf44fde4455bf453ce890b9f73e-ao-2" height="48.71795" width="148.71795" y="124.10253" x="651.48724" stroke="#2D2D2D" fill="#FFEBA2"/>
  <rect id="87dadaf44fde4455bf453ce890b9f73e-ao-3" height="48.71795" width="123.07693" y="118.97433" x="864.30776" stroke="#2D2D2D" fill="#FFEBA2"/>
  <rect id="87dadaf44fde4455bf453ce890b9f73e-ao-4" height="71.79487" width="387.1795" y="113.84612" x="1082.25649" stroke="#2D2D2D" fill="#FFEBA2"/>
  <rect id="87dadaf44fde4455bf453ce890b9f73e-ao-5" height="105.12821" width="374.35899" y="288.2051" x="233.53851" stroke="#2D2D2D" fill="#FFEBA2"/>
  <rect id="87dadaf44fde4455bf453ce890b9f73e-ao-6" height="97.4359" width="182.05129" y="283.0769" x="646.35904" stroke="#2D2D2D" fill="#FFEBA2"/>
  <rect id="87dadaf44fde4455bf453ce890b9f73e-ao-7" height="53.84616" width="192.3077" y="290.7692" x="866.87186" stroke="#2D2D2D" fill="#FFEBA2"/>
  <rect id="87dadaf44fde4455bf453ce890b9f73e-ao-8" height="97.4359" width="387.1795" y="285.641" x="1082.25649" stroke="#2D2D2D" fill="#FFEBA2"/>
  <rect id="87dadaf44fde4455bf453ce890b9f73e-ao-9" height="102.56411" width="389.7436" y="403.58972" x="236.10261" stroke="#2D2D2D" fill="#FFEBA2"/>
  <rect id="87dadaf44fde4455bf453ce890b9f73e-ao-10" height="64.10257" width="156.41026" y="403.58972" x="648.92314" stroke="#2D2D2D" fill="#FFEBA2"/>
  <rect id="87dadaf44fde4455bf453ce890b9f73e-ao-11" height="48.71795" width="130.76923" y="403.58972" x="861.74366" stroke="#2D2D2D" fill="#FFEBA2"/>
  <rect id="87dadaf44fde4455bf453ce890b9f73e-ao-12" height="76.92308" width="394.87181" y="406.15382" x="1077.12828" stroke="#2D2D2D" fill="#FF7E7E" class="qshape"/>
  <rect id="87dadaf44fde4455bf453ce890b9f73e-ao-13" height="71.79487" width="294.8718" y="524.10254" x="236.10261" stroke="#2D2D2D" fill="#FFEBA2"/>
  <rect id="87dadaf44fde4455bf453ce890b9f73e-ao-14" height="89.74359" width="302.56411" y="701.02563" x="230.97441" stroke="#2D2D2D" fill="#FFEBA2"/>
  <rect id="87dadaf44fde4455bf453ce890b9f73e-ao-15" height="58.97436" width="161.53847" y="521.53844" x="651.48724" stroke="#2D2D2D" fill="#FFEBA2"/>
  <rect id="87dadaf44fde4455bf453ce890b9f73e-ao-16" height="64.10257" width="194.8718" y="688.20511" x="636.10263" stroke="#2D2D2D" fill="#FFEBA2"/>
  <rect id="87dadaf44fde4455bf453ce890b9f73e-ao-17" height="58.97436" width="133.33334" y="521.53844" x="864.30776" stroke="#2D2D2D" fill="#FFEBA2"/>
  <rect id="87dadaf44fde4455bf453ce890b9f73e-ao-18" height="58.97436" width="156.41026" y="688.20511" x="864.30776" stroke="#2D2D2D" fill="#FFEBA2"/>
  <rect id="87dadaf44fde4455bf453ce890b9f73e-ao-19" height="156.41026" width="387.1795" y="518.97434" x="1079.69238" stroke="#2D2D2D" fill="#FFEBA2"/>
  <rect id="87dadaf44fde4455bf453ce890b9f73e-ao-20" height="87.17949" width="361.53847" y="693.33332" x="1084.82059" stroke="#2D2D2D" fill="#FFEBA2"/>
 </g>
</svg>