<?xml version="1.0" encoding="UTF-8" standalone="no"?>
<svg
   viewBox="0 0 243.39433 60.079302"
   version="1.1"
   id="svg17"
   sodipodi:docname="lsuhsc-dark.svg"
   width="243.39433"
   height="60.0793"
   inkscape:version="1.4 (86a8ad7, 2024-10-11)"
   xmlns:inkscape="http://www.inkscape.org/namespaces/inkscape"
   xmlns:sodipodi="http://sodipodi.sourceforge.net/DTD/sodipodi-0.dtd"
   xmlns="http://www.w3.org/2000/svg"
   xmlns:svg="http://www.w3.org/2000/svg">
  <sodipodi:namedview
     id="namedview17"
     pagecolor="#ffffff"
     bordercolor="#000000"
     borderopacity="0.25"
     inkscape:showpageshadow="2"
     inkscape:pageopacity="0.0"
     inkscape:pagecheckerboard="0"
     inkscape:deskcolor="#d1d1d1"
     inkscape:zoom="6.7121246"
     inkscape:cx="116.50558"
     inkscape:cy="23.316015"
     inkscape:window-width="2560"
     inkscape:window-height="1369"
     inkscape:window-x="-8"
     inkscape:window-y="-8"
     inkscape:window-maximized="1"
     inkscape:current-layer="svg17" />
  <defs
     id="defs1">
    <style
       id="style1">.cls-1{fill:#fdd023;}.cls-2{fill:#fff;}</style>
  </defs>
  <g
     id="Layer_2"
     data-name="Layer 2"
     style="fill:#2e2f31;fill-opacity:1;stroke:none;stroke-width:0.418973;stroke-dasharray:none;stroke-opacity:0.03921569"
     transform="matrix(0.95471607,0,0,0.95471607,0.20000013,0.20000013)">
    <g
       id="Layer_1-2"
       data-name="Layer 1"
       style="fill:#2e2f31;fill-opacity:1;stroke:none;stroke-width:0.418973;stroke-dasharray:none;stroke-opacity:0.03921569">
      <rect
         class="cls-1"
         y="40.529999"
         width="254.5"
         height="5.3499999"
         id="rect1"
         style="fill:#2e2f31;fill-opacity:1;stroke:none;stroke-width:0.418973;stroke-dasharray:none;stroke-opacity:0.03921569"
         x="0" />
      <path
         class="cls-1"
         d="M 69.42,28.69 V 15.88 H 44.88 v -3.63 c 0,-1.6 1.77,-2.91 3.92,-2.91 H 69.42 V 2.47 H 43.28 c -5.57,0 -10.12,3.37 -10.12,7.5 V 22.75 H 57.7 v 3.67 c 0,1.6 -1.77,2.91 -4,2.91 H 33.16 v 6.87 h 26.1 c 5.61,0 10.16,-3.37 10.16,-7.51 z"
         id="path1"
         style="fill:#2e2f31;fill-opacity:1;stroke:none;stroke-width:0.418973;stroke-dasharray:none;stroke-opacity:0.03921569" />
      <polygon
         class="cls-1"
         points="30.37,29.37 11.65,29.37 11.65,2.47 0.01,2.47 0.01,36.2 30.37,36.2 "
         id="polygon1"
         style="fill:#2e2f31;fill-opacity:1;stroke:none;stroke-width:0.418973;stroke-dasharray:none;stroke-opacity:0.03921569" />
      <path
         class="cls-1"
         d="M 108.37,28.69 V 2.47 H 96.69 v 24 c 0,1.64 -1.77,2.95 -4,2.95 h -8.9 V 2.55 H 72.19 V 36.2 h 26.06 c 5.57,0 10.12,-3.37 10.12,-7.51 z"
         id="path2"
         style="fill:#2e2f31;fill-opacity:1;stroke:none;stroke-width:0.418973;stroke-dasharray:none;stroke-opacity:0.03921569" />
      <path
         class="cls-2"
         d="m 140.42,36.43 v -14 h -11.86 v 14 h -8.48 V 2.2 h 8.48 V 15 h 11.86 V 2.2 H 149 v 34.23 z"
         id="path3"
         style="fill:#2e2f31;fill-opacity:1;stroke:none;stroke-width:0.418973;stroke-dasharray:none;stroke-opacity:0.03921569" />
      <path
         class="cls-2"
         d="m 164.46,36.92 c -7.29,0 -12.5,-3.92 -12.5,-12.55 0,-7.94 4.86,-12.75 11.46,-12.75 7.49,0 10.76,5.56 10.76,12.6 a 18.19,18.19 0 0 1 -0.1,1.94 H 159.4 c 0.4,3.87 2.68,5.3 6,5.3 a 15.87,15.87 0 0 0 8,-2.57 l 0.74,5.3 a 17.58,17.58 0 0 1 -9.68,2.73 z M 159.35,22 H 167 c -0.25,-3.67 -1.54,-5.56 -3.82,-5.56 -2.09,0.04 -3.58,1.88 -3.83,5.56 z"
         id="path4"
         style="fill:#2e2f31;fill-opacity:1;stroke:none;stroke-width:0.418973;stroke-dasharray:none;stroke-opacity:0.03921569" />
      <path
         class="cls-2"
         d="m 191.74,36.43 -0.5,-3 a 10.06,10.06 0 0 1 -7.63,3.52 c -3.87,0 -6.6,-2.33 -6.6,-6.74 0,-5.71 4.36,-8.39 13.89,-9.23 V 20.5 c 0,-2.13 -1.19,-3.07 -3.67,-3.07 a 19.09,19.09 0 0 0 -7.84,1.83 l -0.89,-5.65 a 25.15,25.15 0 0 1 9.87,-1.89 c 6.69,0 10,2.23 10,8.44 V 36.43 Z M 190.9,24.57 c -5.11,0.79 -6.5,2.48 -6.5,4.61 a 2.19,2.19 0 0 0 2.38,2.38 6.29,6.29 0 0 0 4.12,-1.83 z"
         id="path5"
         style="fill:#2e2f31;fill-opacity:1;stroke:none;stroke-width:0.418973;stroke-dasharray:none;stroke-opacity:0.03921569" />
      <rect
         class="cls-2"
         x="203.49001"
         width="7.54"
         height="36.43"
         id="rect5"
         style="fill:#2e2f31;fill-opacity:1;stroke:none;stroke-width:0.418973;stroke-dasharray:none;stroke-opacity:0.03921569"
         y="0" />
      <path
         class="cls-2"
         d="m 247.62,11.62 c -3,0 -5.2,1.54 -7.24,3.52 V 0 h -7.49 v 36.43 h 7.49 v -16 c 1.34,-1.34 2.68,-2.18 4.12,-2.18 1.79,0 2.48,1.19 2.48,2.93 v 15.25 h 7.54 V 19.16 c 0,-4.76 -2.38,-7.54 -6.9,-7.54 z"
         id="path6"
         style="fill:#2e2f31;fill-opacity:1;stroke:none;stroke-width:0.418973;stroke-dasharray:none;stroke-opacity:0.03921569" />
      <path
         class="cls-2"
         d="m 226.64,30.37 c -2,0 -3,-0.94 -3,-2.87 v -9.28 h 5.26 v -6.1 h -5.26 V 0 h -7.44 v 28.69 c 0,6.2 3.62,8.08 8.83,8.08 a 14.52,14.52 0 0 0 4.31,-0.49 l -0.89,-6.15 a 7.58,7.58 0 0 1 -1.81,0.24 z"
         id="path7"
         style="fill:#2e2f31;fill-opacity:1;stroke:none;stroke-width:0.418973;stroke-dasharray:none;stroke-opacity:0.03921569" />
      <path
         class="cls-1"
         d="m 128.18,62.27 -5,-7.62 v 7.62 h -2.93 V 49.54 h 3.06 l 4.69,7.12 v -7.12 h 2.93 v 12.73 z"
         id="path8"
         style="fill:#2e2f31;fill-opacity:1;stroke:none;stroke-width:0.418973;stroke-dasharray:none;stroke-opacity:0.03921569" />
      <path
         class="cls-1"
         d="M 134.34,62.27 V 49.54 h 7.93 v 2.54 h -4.83 v 2.35 h 3.69 l 0.4,2.52 h -4.09 v 2.75 h 5 v 2.57 z"
         id="path9"
         style="fill:#2e2f31;fill-opacity:1;stroke:none;stroke-width:0.418973;stroke-dasharray:none;stroke-opacity:0.03921569" />
      <path
         class="cls-1"
         d="m 158.61,62.27 h -3.19 l -2.19,-8.21 -2.23,8.21 h -3.17 l -3.33,-12.33 3.41,-0.53 1.92,8.1 2.07,-8 h 3.17 l 2.07,8 1.82,-8 h 3.12 z"
         id="path10"
         style="fill:#2e2f31;fill-opacity:1;stroke:none;stroke-width:0.418973;stroke-dasharray:none;stroke-opacity:0.03921569" />
      <path
         class="cls-1"
         d="m 174.81,62.51 c -3.65,0 -6.05,-2.66 -6.05,-6.59 0,-3.93 2.4,-6.62 6.09,-6.62 3.69,0 6.07,2.65 6.07,6.58 0,3.93 -2.4,6.63 -6.11,6.63 z m 0,-10.74 c -1.83,0 -2.92,1.6 -2.92,4.13 0,2.53 1.11,4.1 2.94,4.1 1.83,0 2.91,-1.6 2.91,-4.13 0,-2.53 -1.07,-4.1 -2.91,-4.1 z"
         id="path11"
         style="fill:#2e2f31;fill-opacity:1;stroke:none;stroke-width:0.418973;stroke-dasharray:none;stroke-opacity:0.03921569" />
      <path
         class="cls-1"
         d="m 190.62,62.4 -2.81,-4.51 H 187 v 4.38 h -3.14 V 49.54 h 4.45 c 3.08,0 4.89,1.4 4.89,4 a 3.7,3.7 0 0 1 -2.4,3.62 l 3.08,4.68 z M 188,51.92 h -1 v 3.71 h 1 c 1.36,0 2.14,-0.67 2.14,-1.89 0,-1.22 -0.76,-1.82 -2.14,-1.82 z"
         id="path12"
         style="fill:#2e2f31;fill-opacity:1;stroke:none;stroke-width:0.418973;stroke-dasharray:none;stroke-opacity:0.03921569" />
      <path
         class="cls-1"
         d="M 196.66,62.27 V 49.54 h 3.16 v 10 h 3.91 l 0.42,2.73 z"
         id="path13"
         style="fill:#2e2f31;fill-opacity:1;stroke:none;stroke-width:0.418973;stroke-dasharray:none;stroke-opacity:0.03921569" />
      <path
         class="cls-1"
         d="M 206.73,62.27 V 49.54 h 7.94 v 2.54 h -4.84 v 2.35 h 3.69 l 0.41,2.52 h -4.1 v 2.75 h 5 v 2.57 z"
         id="path14"
         style="fill:#2e2f31;fill-opacity:1;stroke:none;stroke-width:0.418973;stroke-dasharray:none;stroke-opacity:0.03921569" />
      <path
         class="cls-1"
         d="m 221.36,49.48 h 3.47 l 4.43,12.4 -3.18,0.52 -0.94,-2.77 h -4.43 l -0.84,2.64 h -3.09 z m 0.11,7.68 h 2.88 l -1.42,-4.43 z"
         id="path15"
         style="fill:#2e2f31;fill-opacity:1;stroke:none;stroke-width:0.418973;stroke-dasharray:none;stroke-opacity:0.03921569" />
      <path
         class="cls-1"
         d="m 239.71,62.27 -5,-7.62 v 7.62 h -2.93 V 49.54 h 3.06 l 4.69,7.12 v -7.12 h 2.93 v 12.73 z"
         id="path16"
         style="fill:#2e2f31;fill-opacity:1;stroke:none;stroke-width:0.418973;stroke-dasharray:none;stroke-opacity:0.03921569" />
      <path
         class="cls-1"
         d="m 249.8,62.41 a 10.49,10.49 0 0 1 -4.45,-0.95 l 0.47,-2.7 a 9,9 0 0 0 4,1.18 c 0.9,0 1.53,-0.38 1.53,-1.14 0,-0.76 -0.37,-1 -2.16,-1.74 -2.55,-1 -3.65,-1.8 -3.65,-3.91 0,-2.45 1.91,-3.76 4.35,-3.76 a 8.05,8.05 0 0 1 3.84,0.85 l -0.48,2.66 a 7,7 0 0 0 -3.32,-1 c -1,0 -1.42,0.41 -1.42,1 0,0.59 0.35,1 1.93,1.57 2.79,1 3.88,2 3.88,4 0.04,2.73 -1.99,3.94 -4.52,3.94 z"
         id="path17"
         style="fill:#2e2f31;fill-opacity:1;stroke:none;stroke-width:0.418973;stroke-dasharray:none;stroke-opacity:0.03921569" />
    </g>
  </g>
</svg>
