<svg xmlns="http://www.w3.org/2000/svg" width="1306" height="932">
 <!-- Created with Image Occlusion Enhanced -->
 <g>
  <title>Labels</title>
 </g>
 <g>
  <title>Masks</title>
  <rect fill="#FFEBA2" stroke="#2D2D2D" x="557.1579" y="50.89472" width="239.47368" height="57.89474" id="a9a764ad1a214c26856324380f6b467d-ao-1"/>
  <rect fill="#FF7E7E" stroke="#2D2D2D" x="722.94737" y="114.05262" width="294.73684" height="52.63158" id="a9a764ad1a214c26856324380f6b467d-ao-2" class="qshape"/>
  <rect fill="#FFEBA2" stroke="#2D2D2D" x="794.00001" y="198.26314" width="123.68421" height="42.10526" id="a9a764ad1a214c26856324380f6b467d-ao-3"/>
  <rect fill="#FFEBA2" stroke="#2D2D2D" x="941.36843" y="224.57893" width="184.21053" height="47.36842" id="a9a764ad1a214c26856324380f6b467d-ao-4"/>
  <rect fill="#FFEBA2" stroke="#2D2D2D" x="909.78948" y="314.05262" width="181.57895" height="47.36842" id="a9a764ad1a214c26856324380f6b467d-ao-5"/>
  <rect fill="#FFEBA2" stroke="#2D2D2D" x="870.31579" y="495.63156" width="273.68421" height="60.52632" id="a9a764ad1a214c26856324380f6b467d-ao-6"/>
  <rect fill="#FFEBA2" stroke="#2D2D2D" x="644" y="379.84209" width="289.47368" height="105.26316" id="a9a764ad1a214c26856324380f6b467d-ao-7"/>
  <rect fill="#FFEBA2" stroke="#2D2D2D" x="641.36843" y="564.05262" width="292.10526" height="81.57895" id="a9a764ad1a214c26856324380f6b467d-ao-8"/>
  <rect fill="#FFEBA2" stroke="#2D2D2D" x="754.52632" y="682.47367" width="255.26316" height="52.63158" id="a9a764ad1a214c26856324380f6b467d-ao-9"/>
  <rect fill="#FFEBA2" stroke="#2D2D2D" x="491.36843" y="682.47367" width="181.57895" height="50" id="a9a764ad1a214c26856324380f6b467d-ao-10"/>
  <rect fill="#FFEBA2" stroke="#2D2D2D" x="544" y="848.26314" width="442.10526" height="63.15789" id="a9a764ad1a214c26856324380f6b467d-ao-11"/>
  <rect fill="#FFEBA2" stroke="#2D2D2D" x="49.26316" y="611.42104" width="286.84211" height="105.26316" id="a9a764ad1a214c26856324380f6b467d-ao-12"/>
  <rect fill="#FFEBA2" stroke="#2D2D2D" x="354.52632" y="490.36841" width="181.57895" height="63.15789" id="a9a764ad1a214c26856324380f6b467d-ao-13"/>
  <rect fill="#FFEBA2" stroke="#2D2D2D" x="386.10527" y="308.78946" width="157.89474" height="60.52632" id="a9a764ad1a214c26856324380f6b467d-ao-14"/>
  <rect fill="#FFEBA2" stroke="#2D2D2D" x="478.21053" y="177.21051" width="244.73684" height="71.05263" id="a9a764ad1a214c26856324380f6b467d-ao-15"/>
  <rect fill="#FFEBA2" stroke="#2D2D2D" x="44" y="174.57893" width="292.10526" height="100" id="a9a764ad1a214c26856324380f6b467d-ao-16"/>
  <rect id="a9a764ad1a214c26856324380f6b467d-ao-17" height="63.15789" width="194.73684" y="366.6842" x="201.89474" stroke="#2D2D2D" fill="#FFEBA2"/>
 </g>
</svg>