<svg xmlns="http://www.w3.org/2000/svg" width="1468" height="1261">
 <!-- Created with Image Occlusion Enhanced -->
 <g>
  <title>Labels</title>
 </g>
 <g>
  <title>Masks</title>
  <rect id="bb8f541e4ea14fd386dde01b24251517-ao-1" height="51.92308" width="219.23077" y="240.4423" x="213.73072" stroke="#2D2D2D" fill="#FFEBA2"/>
  <rect id="bb8f541e4ea14fd386dde01b24251517-ao-2" height="49.03846" width="213.46154" y="246.21154" x="770.46149" stroke="#2D2D2D" fill="#FFEBA2"/>
  <rect id="bb8f541e4ea14fd386dde01b24251517-ao-3" height="51.92308" width="207.69231" y="448.13461" x="57.96149" stroke="#2D2D2D" fill="#FFEBA2"/>
  <rect id="bb8f541e4ea14fd386dde01b24251517-ao-4" height="54.80769" width="300" y="644.28846" x="98.34611" stroke="#2D2D2D" fill="#FFEBA2"/>
  <rect id="bb8f541e4ea14fd386dde01b24251517-ao-5" height="54.80769" width="201.92308" y="828.90384" x="17.57688" stroke="#2D2D2D" fill="#FFEBA2"/>
  <rect id="bb8f541e4ea14fd386dde01b24251517-ao-6" height="46.15385" width="204.80769" y="1117.36538" x="14.69226" stroke="#2D2D2D" fill="#FFEBA2"/>
  <rect id="bb8f541e4ea14fd386dde01b24251517-ao-7" height="37.5" width="121.15385" y="892.36538" x="761.80765" stroke="#2D2D2D" fill="#FFEBA2"/>
  <rect id="bb8f541e4ea14fd386dde01b24251517-ao-8" height="43.26923" width="187.5" y="1007.75" x="481.99995" stroke="#2D2D2D" fill="#FFEBA2"/>
  <rect id="bb8f541e4ea14fd386dde01b24251517-ao-9" height="63.46154" width="268.26923" y="808.71153" x="531.03842" stroke="#2D2D2D" fill="#FFEBA2"/>
  <rect id="bb8f541e4ea14fd386dde01b24251517-ao-10" height="40.38462" width="294.23077" y="696.21153" x="704.11534" stroke="#2D2D2D" fill="#FFEBA2"/>
  <rect id="bb8f541e4ea14fd386dde01b24251517-ao-11" height="72.11538" width="308.65385" y="497.17307" x="640.6538" stroke="#2D2D2D" fill="#FFEBA2"/>
  <rect id="bb8f541e4ea14fd386dde01b24251517-ao-12" height="49.03846" width="187.5" y="427.9423" x="715.6538" stroke="#2D2D2D" fill="#FFEBA2"/>
  <rect id="bb8f541e4ea14fd386dde01b24251517-ao-13" height="135.57692" width="201.92308" y="479.86538" x="1246.42303" stroke="#2D2D2D" fill="#FF7E7E" class="qshape"/>
  <rect id="bb8f541e4ea14fd386dde01b24251517-ao-14" height="89.42308" width="262.5" y="759.67307" x="1177.19226" stroke="#2D2D2D" fill="#FFEBA2"/>
  <rect id="bb8f541e4ea14fd386dde01b24251517-ao-15" height="63.46154" width="187.5" y="1007.75" x="1081.99995" stroke="#2D2D2D" fill="#FFEBA2"/>
  <rect id="bb8f541e4ea14fd386dde01b24251517-ao-16" height="46.15385" width="213.46154" y="1206.78846" x="655.07688" stroke="#2D2D2D" fill="#FFEBA2"/>
 </g>
</svg>