<svg xmlns="http://www.w3.org/2000/svg" width="500" height="421">
 <!-- Created with Image Occlusion Enhanced -->
 <g>
  <title>Labels</title>
 </g>
 <g>
  <title>Masks</title>
  <rect id="c796bd1291634423a3c232aec08958e5-ao-1" height="57.69231" width="83.33333" y="68.74358" x="5.12821" stroke="#2D2D2D" fill="#FF7E7E" class="qshape"/>
  <rect id="c796bd1291634423a3c232aec08958e5-ao-2" height="56.41026" width="80.76923" y="137.97435" x="3.84615" stroke="#2D2D2D" fill="#FFEBA2"/>
  <rect id="c796bd1291634423a3c232aec08958e5-ao-3" height="37.17949" width="110.25641" y="204.64102" x="8.97436" stroke="#2D2D2D" fill="#FFEBA2"/>
  <rect id="c796bd1291634423a3c232aec08958e5-ao-4" height="24.35897" width="87.17949" y="246.94871" x="11.53846" stroke="#2D2D2D" fill="#FFEBA2"/>
  <rect id="c796bd1291634423a3c232aec08958e5-ao-5" height="17.94872" width="94.87179" y="280.28204" x="8.97436" stroke="#2D2D2D" fill="#FFEBA2"/>
  <rect id="c796bd1291634423a3c232aec08958e5-ao-6" height="41.02564" width="83.33333" y="307.20512" x="5.12821" stroke="#2D2D2D" fill="#FFEBA2"/>
  <rect id="c796bd1291634423a3c232aec08958e5-ao-7" height="16.66667" width="67.94872" y="354.64102" x="7.69231" stroke="#2D2D2D" fill="#FFEBA2"/>
  <rect id="c796bd1291634423a3c232aec08958e5-ao-8" height="19.23077" width="111.53846" y="385.41025" x="2.5641" stroke="#2D2D2D" fill="#FFEBA2"/>
  <rect id="c796bd1291634423a3c232aec08958e5-ao-9" height="38.46154" width="75.64103" y="377.71794" x="356.41026" stroke="#2D2D2D" fill="#FFEBA2"/>
  <rect id="c796bd1291634423a3c232aec08958e5-ao-10" height="38.46154" width="119.23077" y="331.56409" x="353.84615" stroke="#2D2D2D" fill="#FFEBA2"/>
  <rect id="c796bd1291634423a3c232aec08958e5-ao-11" height="20.51282" width="48.71795" y="294.38461" x="357.69231" stroke="#2D2D2D" fill="#FFEBA2"/>
  <rect stroke="#2D2D2D" id="c796bd1291634423a3c232aec08958e5-ao-12" height="24.35897" width="115.38461" y="250.79486" x="353.84616" fill="#FFEBA2"/>
  <rect id="c796bd1291634423a3c232aec08958e5-ao-13" height="19.23077" width="102.5641" y="214.89743" x="343.58974" stroke="#2D2D2D" fill="#FFEBA2"/>
  <rect id="c796bd1291634423a3c232aec08958e5-ao-14" height="35.89744" width="125.64103" y="159.76922" x="361.53846" stroke="#2D2D2D" fill="#FFEBA2"/>
  <rect id="c796bd1291634423a3c232aec08958e5-ao-15" height="37.17949" width="132.05128" y="105.92307" x="364.10256" stroke="#2D2D2D" fill="#FFEBA2"/>
  <rect id="c796bd1291634423a3c232aec08958e5-ao-16" height="20.51282" width="84.61538" y="63.61538" x="361.53846" stroke="#2D2D2D" fill="#FFEBA2"/>
 </g>
</svg>