<svg xmlns="http://www.w3.org/2000/svg" width="913" height="681">
 <!-- Created with Image Occlusion Enhanced -->
 <g>
  <title>Labels</title>
 </g>
 <g>
  <title>Masks</title>
  <rect id="db9377ca7f8441c5ad5bc87d9d44f3d0-ao-1" height="35.9375" width="118.75" y="172.90626" x="117.46873" stroke="#2D2D2D" fill="#FFEBA2"/>
  <rect id="db9377ca7f8441c5ad5bc87d9d44f3d0-ao-2" height="56.25" width="195.3125" y="249.46876" x="40.90623" stroke="#2D2D2D" fill="#FFEBA2"/>
  <rect id="db9377ca7f8441c5ad5bc87d9d44f3d0-ao-3" height="65.625" width="151.5625" y="152.59376" x="394.03123" stroke="#2D2D2D" fill="#FFEBA2"/>
  <rect id="db9377ca7f8441c5ad5bc87d9d44f3d0-ao-4" height="73.4375" width="154.6875" y="235.40626" x="401.84373" stroke="#2D2D2D" fill="#FFEBA2"/>
  <rect stroke="#2D2D2D" id="db9377ca7f8441c5ad5bc87d9d44f3d0-ao-5" height="54.6875" width="179.68749" y="385.40626" x="375.28124" fill="#FFEBA2"/>
  <rect id="db9377ca7f8441c5ad5bc87d9d44f3d0-ao-6" height="29.6875" width="235.9375" y="416.65626" x="-2.84377" stroke="#2D2D2D" fill="#FFEBA2"/>
  <rect id="db9377ca7f8441c5ad5bc87d9d44f3d0-ao-7" height="48.4375" width="164.0625" y="590.09376" x="73.71873" stroke="#2D2D2D" fill="#FFEBA2"/>
  <rect id="db9377ca7f8441c5ad5bc87d9d44f3d0-ao-8" height="26.5625" width="146.875" y="655.71876" x="90.90623" stroke="#2D2D2D" fill="#FFEBA2"/>
  <rect id="db9377ca7f8441c5ad5bc87d9d44f3d0-ao-9" height="51.5625" width="160.9375" y="516.65626" x="360.43748" stroke="#2D2D2D" fill="#FFEBA2"/>
  <rect id="db9377ca7f8441c5ad5bc87d9d44f3d0-ao-10" height="34.375" width="173.4375" y="590.09376" x="361.99998" stroke="#2D2D2D" fill="#FF7E7E" class="qshape"/>
  <rect id="db9377ca7f8441c5ad5bc87d9d44f3d0-ao-11" height="26.5625" width="190.625" y="630.71876" x="361.99998" stroke="#2D2D2D" fill="#FFEBA2"/>
  <rect id="db9377ca7f8441c5ad5bc87d9d44f3d0-ao-12" height="43.75" width="209.375" y="599.46876" x="679.18748" stroke="#2D2D2D" fill="#FFEBA2"/>
  <rect id="db9377ca7f8441c5ad5bc87d9d44f3d0-ao-13" height="25" width="184.375" y="521.34376" x="672.93748" stroke="#2D2D2D" fill="#FFEBA2"/>
  <rect id="db9377ca7f8441c5ad5bc87d9d44f3d0-ao-14" height="26.5625" width="232.8125" y="383.84376" x="679.18748" stroke="#2D2D2D" fill="#FFEBA2"/>
  <rect id="db9377ca7f8441c5ad5bc87d9d44f3d0-ao-15" height="28.125" width="115.625" y="232.28126" x="679.18748" stroke="#2D2D2D" fill="#FFEBA2"/>
  <rect id="db9377ca7f8441c5ad5bc87d9d44f3d0-ao-16" height="21.875" width="182.8125" y="101.03126" x="677.62498" stroke="#2D2D2D" fill="#FFEBA2"/>
  <rect id="db9377ca7f8441c5ad5bc87d9d44f3d0-ao-17" height="26.5625" width="179.6875" y="19.78126" x="677.62498" stroke="#2D2D2D" fill="#FFEBA2"/>
 </g>
</svg>