<svg xmlns="http://www.w3.org/2000/svg" width="1466" height="557">
 <!-- Created with Image Occlusion Enhanced -->
 <g>
  <title>Labels</title>
 </g>
 <g>
  <title>Masks</title>
  <rect id="e3864acf90cb4312b0059daced72c8d5-ao-1" height="73.33334" width="117.77778" y="85.22224" x="38.44439" stroke="#2D2D2D" fill="#FFEBA2"/>
  <rect id="e3864acf90cb4312b0059daced72c8d5-ao-2" height="60" width="97.77778" y="180.7778" x="160.66661" stroke="#2D2D2D" fill="#FFEBA2"/>
  <rect id="e3864acf90cb4312b0059daced72c8d5-ao-3" height="53.33333" width="82.22222" y="300.7778" x="176.22217" stroke="#2D2D2D" fill="#FFEBA2"/>
  
  <rect id="e3864acf90cb4312b0059daced72c8d5-ao-5" height="53.33333" width="88.88889" y="438.55558" x="185.11106" stroke="#2D2D2D" fill="#FFEBA2"/>
  <rect id="e3864acf90cb4312b0059daced72c8d5-ao-6" height="57.77778" width="100" y="220.7778" x="336.22217" stroke="#2D2D2D" fill="#FFEBA2"/>
  <rect id="e3864acf90cb4312b0059daced72c8d5-ao-7" height="57.77778" width="80" y="387.44447" x="400.66662" stroke="#2D2D2D" fill="#FFEBA2"/>
  <rect id="e3864acf90cb4312b0059daced72c8d5-ao-8" height="55.55556" width="88.88889" y="316.33335" x="518.4444" stroke="#2D2D2D" fill="#FFEBA2"/>
  <rect id="e3864acf90cb4312b0059daced72c8d5-ao-9" height="57.77778" width="97.77778" y="80.77779" x="453.99995" stroke="#2D2D2D" fill="#FFEBA2"/>
  <rect id="e3864acf90cb4312b0059daced72c8d5-ao-10" height="55.55556" width="102.22222" y="165.22224" x="622.88885" stroke="#2D2D2D" fill="#FFEBA2"/>
  <rect id="e3864acf90cb4312b0059daced72c8d5-ao-11" height="55.55556" width="120" y="229.66669" x="625.11107" stroke="#2D2D2D" fill="#FFEBA2"/>
  <rect id="e3864acf90cb4312b0059daced72c8d5-ao-12" height="55.55556" width="84.44445" y="296.33335" x="636.22218" stroke="#2D2D2D" fill="#FFEBA2"/>
  <rect id="e3864acf90cb4312b0059daced72c8d5-ao-13" height="55.55556" width="84.44445" y="365.22224" x="633.99996" stroke="#2D2D2D" fill="#FFEBA2"/>
  <rect id="e3864acf90cb4312b0059daced72c8d5-ao-14" height="37.77778" width="151.11111" y="83.00002" x="645.11107" stroke="#2D2D2D" fill="#FFEBA2"/>
  <rect id="e3864acf90cb4312b0059daced72c8d5-ao-15" height="64.44445" width="95.55556" y="147.44446" x="1338.44442" stroke="#2D2D2D" fill="#FFEBA2"/>
  <rect id="e3864acf90cb4312b0059daced72c8d5-ao-16" height="48.88889" width="88.88889" y="220.7778" x="1353.99997" stroke="#2D2D2D" fill="#FFEBA2"/>
  <rect id="e3864acf90cb4312b0059daced72c8d5-ao-17" height="57.77778" width="86.66667" y="278.55558" x="1367.33331" stroke="#2D2D2D" fill="#FFEBA2"/>
  <rect stroke="#2D2D2D" id="e3864acf90cb4312b0059daced72c8d5-ao-18" height="62.22222" width="93.33334" y="360.7778" x="1358.44442" fill="#FFEBA2"/>
 </g>
</svg>